<?xml version="1.0" ?><svg style="enable-background:new 0 0 84.629 52;" version="1.1" viewBox="0 0 84.629 52" xml:space="preserve" xmlns="http://www.w3.org/2000/svg" xmlns:xlink="http://www.w3.org/1999/xlink"><g id="envelope"><g><path d="M41.017,39.66c0.268,0.264,0.623,0.41,0.999,0.41c0.384,0,0.743-0.15,1.013-0.423L81.327,0.644    C81.08,0.571,80.819,0.34,80.548,0.34H2.582c-0.3,0-0.588,0.24-0.859,0.329c0.04,0.053,0.08,0.202,0.128,0.25L41.017,39.66z"/><path d="M44.903,41.497c-0.768,0.779-1.794,1.207-2.887,1.207c-1.073,0-2.085-0.415-2.849-1.169L0.001,2.889    C-0.026,2.862,0.53,2.833,0.503,2.805C0.452,3.015,1,3.233,1,3.459v45.937c0,1.513,0.069,2.944,1.582,2.944h77.966    c1.513,0,4.452-1.431,4.452-2.944V3.459c0-0.262-0.895-0.514-0.964-0.754L44.903,41.497z"/></g></g><g id="Слой_1"/></svg>